<?xml version="1.0" encoding="UTF-8"?>
<svg width="1024px" height="1024px" viewBox="0 0 1024 1024" version="1.1" xmlns="http://www.w3.org/2000/svg" xmlns:xlink="http://www.w3.org/1999/xlink">
    <title>rocket-illustration</title>
    <defs>
        <linearGradient x1="50%" y1="5.64994762%" x2="50%" y2="100%" id="linearGradient-1">
            <stop stop-color="#01282F" offset="0%"></stop>
            <stop stop-color="#08738C" offset="58.3506337%"></stop>
            <stop stop-color="#B6E1E8" offset="100%"></stop>
        </linearGradient>
        <polygon id="path-2" points="0 0 422 0 422 246 0 246"></polygon>
        <path d="M391.080926,0 L13.9198816,0 C6.23281895,0 0,6.23239407 0,13.9207361 L0,228 L405,228 L405,13.9207361 C405,6.23239407 398.768796,0 391.080926,0" id="path-4"></path>
    </defs>
    <g id="rocket-illustration" stroke="none" stroke-width="1" fill="none" fill-rule="evenodd">
        <g id="space">
            <rect id="space-background" fill="url(#linearGradient-1)" x="0" y="0" width="1024" height="1024"></rect>
            <g id="space-star" transform="translate(21.000000, 195.362953)" fill="#FBF4EC">
                <path d="M236,324.144378 C227.83432,325.158048 227.013102,325.980491 226,334.154153 C224.986898,325.980491 224.16568,325.158048 216,324.144378 C224.16568,323.130708 224.986898,322.308265 226,314.134603 C227.013102,322.308265 227.83432,323.130708 236,324.144378" id="space-star-1"></path>
                <path d="M436,512.328151 C420.485207,514.254123 418.924894,515.816765 417,531.346724 C415.075106,515.816765 413.514793,514.254123 398,512.328151 C413.514793,510.402179 415.075106,508.839537 417,493.309578 C418.924894,508.839537 420.485207,510.402179 436,512.328151" id="space-star-2"></path>
                <path d="M984,748.558845 C973.384615,749.876616 972.317033,750.945792 971,761.571553 C969.682967,750.945792 968.615385,749.876616 958,748.558845 C968.615385,747.241075 969.682967,746.171899 971,735.546138 C972.317033,746.171899 973.384615,747.241075 984,748.558845" id="space-star-3"></path>
                <path d="M221,741.552003 C210.384615,742.869773 209.317033,743.938949 208,754.56471 C206.682967,743.938949 205.615385,742.869773 195,741.552003 C205.615385,740.234232 206.682967,739.165056 208,728.539295 C209.317033,739.165056 210.384615,740.234232 221,741.552003" id="space-star-3"></path>
                <path d="M658,341.160996 C647.384615,342.478766 646.317033,343.547942 645,354.173704 C643.682967,343.547942 642.615385,342.478766 632,341.160996 C642.615385,339.843225 643.682967,338.774049 645,328.148288 C646.317033,338.774049 647.384615,339.843225 658,341.160996" id="space-star-14"></path>
                <path d="M163,188.011436 C152.384615,189.329206 151.317033,190.398382 150,201.024143 C148.682967,190.398382 147.615385,189.329206 137,188.011436 C147.615385,186.693665 148.682967,185.624489 150,174.998728 C151.317033,185.624489 152.384615,186.693665 163,188.011436" id="space-star-5"></path>
                <path d="M445,194.017301 C429.485207,195.943273 427.924894,197.505915 426,213.035874 C424.075106,197.505915 422.514793,195.943273 407,194.017301 C422.514793,192.091329 424.075106,190.528687 426,174.998728 C427.924894,190.528687 429.485207,192.091329 445,194.017301" id="space-star-6"></path>
                <ellipse id="space-star-7" cx="811.5" cy="299.620429" rx="7.5" ry="7.50733138"></ellipse>
                <ellipse id="space-star-8" cx="818.5" cy="519.835483" rx="7.5" ry="7.50733138"></ellipse>
                <ellipse id="space-star-9" cx="371.5" cy="426.744573" rx="7.5" ry="7.50733138"></ellipse>
                <ellipse id="space-star-10" cx="7.5" cy="220.543205" rx="7.5" ry="7.50733138"></ellipse>
                <ellipse id="space-star-11" cx="199.5" cy="535.851123" rx="4.5" ry="4.50439883"></ellipse>
                <ellipse id="space-star-12" cx="488.5" cy="155.479666" rx="4.5" ry="4.50439883"></ellipse>
                <path d="M83,77.9039088 C67.4852071,79.8298809 65.9248943,81.3925227 64,96.9224816 C62.0751057,81.3925227 60.5147929,79.8298809 45,77.9039088 C60.5147929,75.9779367 62.0751057,74.4152948 64,58.885336 C65.9248943,74.4152948 67.4852071,75.9779367 83,77.9039088" id="space-star-13"></path>
                <path d="M46,675.487486 C30.4852071,677.413459 28.9248943,678.9761 27,694.506059 C25.0751057,678.9761 23.5147929,677.413459 8,675.487486 C23.5147929,673.561514 25.0751057,671.998873 27,656.468914 C28.9248943,671.998873 30.4852071,673.561514 46,675.487486" id="space-star-14"></path>
                <path d="M1003,493.309578 C987.485207,495.235551 985.924894,496.798192 984,512.328151 C982.075106,496.798192 980.514793,495.235551 965,493.309578 C980.514793,491.383606 982.075106,489.820964 984,474.291006 C985.924894,489.820964 987.485207,491.383606 1003,493.309578" id="space-star-15"></path>
                <path d="M877.977397,58.6702313 C862.520716,60.5764849 860.967263,62.1313167 859.060921,77.5937425 C857.131539,62.128458 855.575768,60.571309 840.116229,58.6420143 C855.57291,56.7357607 857.126363,55.1809289 859.032704,39.718503 C860.962087,55.1837876 862.517858,56.7409366 877.977397,58.6702313" id="space-star-16" transform="translate(859.046813, 58.656123) rotate(38.000000) translate(-859.046813, -58.656123) "></path>
                <path d="M55.0815949,442.950477 C45.6731799,444.110805 44.7275998,445.057225 43.5672182,454.469136 C42.3928115,445.055485 41.4458202,444.107655 32.0356659,442.933302 C41.4440809,441.772973 42.389661,440.826554 43.5500426,431.414643 C44.7244493,440.828294 45.6714406,441.776124 55.0815949,442.950477" id="space-star-17" transform="translate(43.558630, 442.941889) rotate(38.000000) translate(-43.558630, -442.941889) "></path>
                <path d="M463.908646,16.1940936 C454.500231,17.3544219 453.554651,18.3008413 452.394269,27.7127527 C451.219863,18.2991012 450.272871,17.3512714 440.862717,16.1769181 C450.271132,15.0165898 451.216712,14.0701704 452.377094,4.65825906 C453.5515,14.0719105 454.498492,15.0197403 463.908646,16.1940936" id="space-star-18" transform="translate(452.385682, 16.185506) rotate(38.000000) translate(-452.385682, -16.185506) "></path>
                <path d="M755.927968,547.579938 C746.519553,548.740266 745.573973,549.686686 744.413592,559.098597 C743.239185,549.684946 742.292194,548.737116 732.882039,547.562762 C742.290454,546.402434 743.236034,545.456015 744.396416,536.044103 C745.570823,545.457755 746.517814,546.405585 755.927968,547.579938" id="space-star-19" transform="translate(744.405004, 547.571350) rotate(38.000000) translate(-744.405004, -547.571350) "></path>
                <path d="M283,64.8912011 C272.384615,66.2089715 271.317033,67.2781475 270,77.9039088 C268.682967,67.2781475 267.615385,66.2089715 257,64.8912011 C267.615385,63.5734307 268.682967,62.5042547 270,51.8784933 C271.317033,62.5042547 272.384615,63.5734307 283,64.8912011" id="space-star-20"></path>
            </g>
            <g id="moon" transform="translate(703.000000, 54.052786)">
                <ellipse id="moon-shape" fill="#F7F5F3" cx="128.5" cy="128.625611" rx="128.5" ry="128.625611"></ellipse>
                <ellipse id="moon-highlight-1" fill="#E7DED4" transform="translate(206.964602, 66.779078) rotate(-42.000000) translate(-206.964602, -66.779078) " cx="206.964602" cy="66.7790783" rx="17.4442148" ry="27.3067703"></ellipse>
                <ellipse id="moon-highlight-2" fill="#E7DED4" transform="translate(207.227098, 213.301056) rotate(-42.000000) translate(-207.227098, -213.301056) " cx="207.227098" cy="213.301056" rx="23.5117608" ry="6.4474419"></ellipse>
                <ellipse id="moon-highlight-3" fill="#E7DED4" cx="74.53" cy="203.228465" rx="20.56" ry="20.5800978"></ellipse>
                <ellipse id="moon-highlight-4" fill="#E7DED4" transform="translate(31.687854, 85.328378) rotate(22.000000) translate(-31.687854, -85.328378) " cx="31.6878543" cy="85.3283783" rx="12.5105707" ry="33.3849634"></ellipse>
            </g>
        </g>
        <rect id="wall" fill="#FBECDC" x="0" y="0" width="1024" height="1024"></rect>
        <g id="desk" transform="translate(0.000000, 865.000000)">
            <polygon id="desk-full" fill="#BD7D41" points="0 159 1024 159 1024 0 0 0"></polygon>
            <polygon id="desk-shadow-1" fill="#995725" points="0 143 1024 143 1024 116 0 116"></polygon>
            <polygon id="desk-shadow-2" fill="#784820" points="0 159 1024 159 1024 143 0 143"></polygon>
            <path d="M999,43.5 C999,67.5247941 775.366252,87 499.5,87 C223.633748,87 0,67.5247941 0,43.5 C0,19.4752059 223.633748,0 499.5,0 C775.366252,0 999,19.4752059 999,43.5" id="desk-highlight-bottom" fill="#CF8947"></path>
            <path d="M909,34.5 C909,48.5828 722.079168,60 491.5,60 C260.920832,60 74,48.5828 74,34.5 C74,20.4172 260.920832,9 491.5,9 C722.079168,9 909,20.4172 909,34.5" id="desk-highlight-top" fill="#D9985F"></path>
        </g>
        <g id="window" transform="translate(372.130326, 179.649123)">
            <path d="M-0.130325815,543.350877 L350.869674,543.350877 L350.869674,181.007749 C350.869674,45.1290762 247.42246,0.350877193 177.428325,0.350877193 C107.43419,0.350877193 0.384336942,51.8200715 0.384336942,175.346138 C0.384336942,298.872204 -0.130325815,543.350877 -0.130325815,543.350877" id="window-frame" fill="#E9CDB4"></path>
            <path d="M14.8696742,529.350877 L336.779341,529.350877 C336.779341,529.350877 339.869674,315.177248 339.869674,186.414375 C339.869674,57.6515023 244.383541,14.3508772 178.034096,14.3508772 C111.68362,14.3508772 18.4750625,54.9389055 18.4750625,171.996624 C18.4750625,289.054343 14.8696742,529.350877 14.8696742,529.350877" id="window-green" fill="#B6E1E8"></path>
        </g>
        <g id="computer" transform="translate(126.000000, 547.000000)">
            <path d="M422,15.4459627 L422,282.554037 C422,291.086569 415.087572,298 406.555282,298 L15.445524,298 C6.91323463,298 0,291.086569 0,282.554037 L0,15.4459627 C0,6.91262467 6.91323463,0 15.445524,0 L406.555282,0 C415.087572,0 422,6.91262467 422,15.4459627" id="computer-full-frame" fill="#E0E0E0"></path>
            <path d="M422,247 L422,283.5021 C422,292.063323 415.087572,299 406.555282,299 L15.445524,299 C6.91323463,299 0,292.063323 0,283.5021 L0,247 L422,247 Z" id="computer-bottom" fill="#E0E0E0"></path>
            <path d="M422,15.4350792 L422,246 L0,246 L0,15.4350792 C0,6.90775394 6.91323463,0 15.445524,0 L406.555282,0 C415.087572,0 422,6.90775394 422,15.4350792" id="computer-top" fill="#010100"></path>
            <path d="M399.080926,8 L21.9198816,8 C14.2328189,8 8,14.2323941 8,21.9207361 L8,236 L413,236 L413,21.9207361 C413,14.2323941 406.768796,8 399.080926,8" id="computer-screen-on" fill="#0B7785"></path>
            <path d="M399.080926,8 L21.9198816,8 C14.2328189,8 8,14.2323941 8,21.9207361 L8,236 L413,236 L413,21.9207361 C413,14.2323941 406.768796,8 399.080926,8" id="computer-screen-off" fill="#201530"></path>
            <g id="computer-outside-screen">
                <mask id="mask-3" fill="white">
                    <use xlink:href="#path-2"></use>
                </mask>
                <g id="Clip-10"></g>
                <path d="M412.745579,234.90231 L8.32830127,234.90231 L8.32830127,21.2889032 C8.32830127,13.6132629 14.5473145,7.39845989 22.2289609,7.39845989 L398.845726,7.39845989 C406.526566,7.39845989 412.745579,13.6132629 412.745579,21.2889032 L412.745579,234.90231 Z M406.554787,0 L15.4455358,0 C6.91243361,0 0,6.90775394 0,15.4350792 L0,246 L422.000323,246 L422.000323,15.4350792 C422.000323,6.90775394 415.087083,0 406.554787,0 L406.554787,0 Z" id="Fill-9" fill="#010100" mask="url(#mask-3)"></path>
            </g>
            <path d="M223,273.5 C223,278.746602 218.746417,283 213.499586,283 C208.253583,283 204,278.746602 204,273.5 C204,268.253398 208.253583,264 213.499586,264 C218.746417,264 223,268.253398 223,273.5" id="computer-button" fill="#BCBCBC"></path>
            <path d="M271.251866,351 L223.563621,351 L197.436379,351 L149.748134,351 C127.600272,351 130.36574,346.437481 132.214745,342.789055 C134.055711,339.14063 139.594686,341.874962 150.664597,335.492204 C159.419233,330.444818 160.68138,318.569551 160.818045,313.808315 C160.826085,313.6096 160.826085,313.418832 160.826085,313.243962 C160.850202,312.313971 160.818045,311.773464 160.818045,311.773464 L160.818045,299 L260.471364,299 L260.471364,317.544176 C261.162731,323.179762 263.397615,331.48609 270.335403,335.492204 C281.405314,341.874962 286.944289,339.14063 288.785255,342.789055 C290.63426,346.437481 293.399728,351 271.251866,351" id="computer-stand" fill="#E0E0E0"></path>
            <path d="M260,299 L260,314 L160.008067,314 C160.032268,313.020647 160,312.451451 160,312.451451 L160,299 L260,299 Z" id="computer-stand-shadow" fill="#C6C6C6"></path>
            <circle id="computer-light-on" fill="#9FEECB" cx="381" cy="273" r="5"></circle>
        </g>
        <g id="cloud" transform="translate(134.000000, 555.000000)">
            <mask id="mask-5" fill="white">
                <use xlink:href="#path-4"></use>
            </mask>
            <use id="Mask" fill="#201530" xlink:href="#path-4"></use>
            <polygon id="triangle-fume" fill="#E9F6F0" mask="url(#mask-5)" points="197.219873 156.269663 206.92389 156.269663 223.477801 231.41573 185.803383 231.41573"></polygon>
            <g mask="url(#mask-5)">
                <g transform="translate(-36.818182, 95.640449)">
                    <g id="top-fume" transform="translate(0.000000, -0.000000)">
                        <path d="M443.048171,52.838981 C443.048171,72.1368563 427.276859,87.7808878 407.821975,87.7808878 C388.367091,87.7808878 372.595779,72.1368563 372.595779,52.838981 C372.595779,33.5411056 388.367091,17.8970742 407.821975,17.8970742 C427.276859,17.8970742 443.048171,33.5411056 443.048171,52.838981" id="Fill-2" fill="#E9F6F0"></path>
                        <path d="M400.375787,93.1784181 C400.375787,112.476293 384.604475,128.120325 365.149591,128.120325 C345.694707,128.120325 329.923395,112.476293 329.923395,93.1784181 C329.923395,73.8805427 345.694707,58.2365113 365.149591,58.2365113 C384.604475,58.2365113 400.375787,73.8805427 400.375787,93.1784181" id="Fill-4" fill="#95E1ED"></path>
                        <path d="M364.004024,93.1784181 C364.004024,112.476293 348.232712,128.120325 328.777828,128.120325 C309.322944,128.120325 293.551632,112.476293 293.551632,93.1784181 C293.551632,73.8805427 309.322944,58.2365113 328.777828,58.2365113 C348.232712,58.2365113 364.004024,73.8805427 364.004024,93.1784181" id="Fill-6" fill="#95E1ED"></path>
                        <path d="M346.534122,101.132673 C346.534122,120.430549 330.76281,136.07458 311.307926,136.07458 C291.853042,136.07458 276.08173,120.430549 276.08173,101.132673 C276.08173,81.8347979 291.853042,66.1907665 311.307926,66.1907665 C330.76281,66.1907665 346.534122,81.8347979 346.534122,101.132673" id="Fill-8" fill="#BAEBF4"></path>
                        <path d="M315.03102,101.416754 C315.03102,120.714629 299.259708,136.358661 279.804824,136.358661 C260.34994,136.358661 244.578628,120.714629 244.578628,101.416754 C244.578628,82.1188785 260.34994,66.474847 279.804824,66.474847 C299.259708,66.474847 315.03102,82.1188785 315.03102,101.416754" id="Fill-10" fill="#95E1ED"></path>
                        <path d="M254.888734,109.086928 C254.888734,128.384804 239.117422,144.028835 219.662538,144.028835 C200.207655,144.028835 184.436343,128.384804 184.436343,109.086928 C184.436343,89.7890531 200.207655,74.1450217 219.662538,74.1450217 C239.117422,74.1450217 254.888734,89.7890531 254.888734,109.086928" id="Fill-12" fill="#E4F6F5"></path>
                        <path d="M219.94893,98.2918678 C219.94893,117.589743 204.177618,133.233775 184.722734,133.233775 C165.267851,133.233775 149.496539,117.589743 149.496539,98.2918678 C149.496539,78.9939925 165.267851,63.3499611 184.722734,63.3499611 C204.177618,63.3499611 219.94893,78.9939925 219.94893,98.2918678" id="Fill-14" fill="#95E1ED"></path>
                        <path d="M201.906245,84.6560018 C201.906245,103.953877 186.134933,119.597909 166.680049,119.597909 C147.225165,119.597909 131.453853,103.953877 131.453853,84.6560018 C131.453853,65.3581264 147.225165,49.714095 166.680049,49.714095 C186.134933,49.714095 201.906245,65.3581264 201.906245,84.6560018" id="Fill-16" fill="#BAEBF4"></path>
                        <path d="M149.496539,92.610257 C149.496539,111.908132 133.725226,127.552164 114.270343,127.552164 C94.8154588,127.552164 79.0441468,111.908132 79.0441468,92.610257 C79.0441468,73.3123816 94.8154588,57.6683502 114.270343,57.6683502 C133.725226,57.6683502 149.496539,73.3123816 149.496539,92.610257" id="Fill-18" fill="#E4F6F5"></path>
                        <path d="M128.589934,88.0649683 C128.589934,107.362844 112.818622,123.006875 93.3637386,123.006875 C73.9088548,123.006875 58.1375428,107.362844 58.1375428,88.0649683 C58.1375428,68.7670929 73.9088548,53.1230615 93.3637386,53.1230615 C112.818622,53.1230615 128.589934,68.7670929 128.589934,88.0649683" id="Fill-20" fill="#95E1ED"></path>
                        <path d="M70.4523917,34.9419068 C70.4523917,54.2397821 54.6810797,69.8838135 35.2261959,69.8838135 C15.771312,69.8838135 1.21678566e-14,54.2397821 1.21678566e-14,34.9419068 C1.21678566e-14,15.6440314 15.771312,-5.46080035e-14 35.2261959,-5.46080035e-14 C54.6810797,-5.46080035e-14 70.4523917,15.6440314 70.4523917,34.9419068" id="Fill-22" fill="#95E1ED"></path>
                    </g>
                    <g id="bottom-fume" transform="translate(23.627326, 52.270820)">
                        <path d="M79.4737346,34.9419068 C79.4737346,54.2397821 63.7024225,69.8838135 44.2475387,69.8838135 C24.7926549,69.8838135 9.02134284,54.2397821 9.02134284,34.9419068 C9.02134284,15.6440314 24.7926549,-5.46080035e-14 44.2475387,-5.46080035e-14 C63.7024225,-5.46080035e-14 79.4737346,15.6440314 79.4737346,34.9419068" id="Fill-24" fill="#BAEBF4"></path>
                        <path d="M435.315591,45.026766 C435.315591,66.0504307 418.133799,83.0935588 396.939085,83.0935588 C375.744371,83.0935588 358.562579,66.0504307 358.562579,45.026766 C358.562579,24.0031014 375.744371,6.9599733 396.939085,6.9599733 C418.133799,6.9599733 435.315591,24.0031014 435.315591,45.026766" id="Fill-26" fill="#BAEBF4"></path>
                        <path d="M388.34733,46.1630882 C388.34733,67.1867529 371.165538,84.229881 349.970824,84.229881 C328.77611,84.229881 311.594318,67.1867529 311.594318,46.1630882 C311.594318,25.1394236 328.77611,8.09629547 349.970824,8.09629547 C371.165538,8.09629547 388.34733,25.1394236 388.34733,46.1630882" id="Fill-28" fill="#BAEBF4"></path>
                        <path d="M359.421754,79.9686728 C359.421754,100.992337 342.239963,118.035466 321.045248,118.035466 C299.850534,118.035466 282.668742,100.992337 282.668742,79.9686728 C282.668742,58.9450082 299.850534,41.9018801 321.045248,41.9018801 C342.239963,41.9018801 359.421754,58.9450082 359.421754,79.9686728" id="Fill-30" fill="#E4F6F5"></path>
                        <path d="M406.676407,99.5702303 C406.676407,120.593895 389.494616,137.637023 368.299901,137.637023 C347.105187,137.637023 329.923395,120.593895 329.923395,99.5702303 C329.923395,78.5465656 347.105187,61.5034375 368.299901,61.5034375 C389.494616,61.5034375 406.676407,78.5465656 406.676407,99.5702303" id="Fill-32" fill="#EAF8F1"></path>
                        <path d="M339.087934,124.853399 C339.087934,145.877063 321.906142,162.920191 300.711428,162.920191 C279.516714,162.920191 262.334922,145.877063 262.334922,124.853399 C262.334922,103.829734 279.516714,86.7866059 300.711428,86.7866059 C321.906142,86.7866059 339.087934,103.829734 339.087934,124.853399" id="Fill-34" fill="#EFF9E7"></path>
                        <path d="M330.209787,93.0363778 C330.209787,114.060042 313.027995,131.103171 291.833281,131.103171 C270.638567,131.103171 253.456775,114.060042 253.456775,93.0363778 C253.456775,72.0127131 270.638567,54.969585 291.833281,54.969585 C313.027995,54.969585 330.209787,72.0127131 330.209787,93.0363778" id="Fill-36" fill="#EFF9E7"></path>
                        <path d="M275.222555,113.490177 C275.222555,134.513842 258.040763,151.55697 236.846049,151.55697 C215.651334,151.55697 198.469543,134.513842 198.469543,113.490177 C198.469543,92.4665122 215.651334,75.4233841 236.846049,75.4233841 C258.040763,75.4233841 275.222555,92.4665122 275.222555,113.490177" id="Fill-38" fill="#EFF9E7"></path>
                        <path d="M268.921934,91.9000556 C268.921934,112.92372 251.740142,129.966848 230.545428,129.966848 C209.350714,129.966848 192.168922,112.92372 192.168922,91.9000556 C192.168922,70.876391 209.350714,53.8332629 230.545428,53.8332629 C251.740142,53.8332629 268.921934,70.876391 268.921934,91.9000556" id="Fill-40" fill="#E4F6F5"></path>
                        <path d="M220.194769,101.215341 C220.194769,122.239005 203.012977,139.282133 181.818263,139.282133 C160.623262,139.282133 143.441757,122.239005 143.441757,101.215341 C143.441757,80.191676 160.623262,63.148548 181.818263,63.148548 C203.012977,63.148548 220.194769,80.191676 220.194769,101.215341" id="Fill-42" fill="#EFF9E7"></path>
                        <path d="M189.018612,88.4910891 C189.018612,109.514754 171.83682,126.557882 150.642106,126.557882 C129.447392,126.557882 112.2656,109.514754 112.2656,88.4910891 C112.2656,67.4674245 129.447392,50.4242964 150.642106,50.4242964 C171.83682,50.4242964 189.018612,67.4674245 189.018612,88.4910891" id="Fill-44" fill="#E4F6F5"></path>
                        <path d="M149.210147,87.3547669 C149.210147,108.378432 132.028355,125.42156 110.833641,125.42156 C89.6389264,125.42156 72.4571346,108.378432 72.4571346,87.3547669 C72.4571346,66.3311023 89.6389264,49.2879742 110.833641,49.2879742 C132.028355,49.2879742 149.210147,66.3311023 149.210147,87.3547669" id="Fill-46" fill="#EFF9E7"></path>
                        <path d="M126.871583,57.2422294 C126.871583,78.265894 109.689792,95.3090221 88.4950774,95.3090221 C67.3003632,95.3090221 50.1185713,78.265894 50.1185713,57.2422294 C50.1185713,36.2185647 67.3003632,19.1754366 88.4950774,19.1754366 C109.689792,19.1754366 126.871583,36.2185647 126.871583,57.2422294" id="Fill-48" fill="#E4F6F5"></path>
                        <path d="M101.38271,79.1164312 C101.38271,100.140096 84.2009182,117.183224 63.006204,117.183224 C41.8114897,117.183224 24.6296979,100.140096 24.6296979,79.1164312 C24.6296979,58.0927665 41.8114897,41.0496384 63.006204,41.0496384 C84.2009182,41.0496384 101.38271,58.0927665 101.38271,79.1164312" id="Fill-50" fill="#EFF9E7"></path>
                        <path d="M95.9412651,101.274714 C95.9412651,122.298378 78.7594733,139.341506 57.5647591,139.341506 C36.3700448,139.341506 19.188253,122.298378 19.188253,101.274714 C19.188253,80.2510489 36.3700448,63.2079208 57.5647591,63.2079208 C78.7594733,63.2079208 95.9412651,80.2510489 95.9412651,101.274714" id="Fill-52" fill="#EFF9E7"></path>
                        <path d="M76.7530121,42.1859606 C76.7530121,63.2096253 59.5712203,80.2527534 38.3765061,80.2527534 C17.1817918,80.2527534 -1.21678566e-14,63.2096253 -1.21678566e-14,42.1859606 C-1.21678566e-14,21.162296 17.1817918,4.11916787 38.3765061,4.11916787 C59.5712203,4.11916787 76.7530121,21.162296 76.7530121,42.1859606" id="Fill-54" fill="#E4F6F5"></path>
                    </g>
                </g>
            </g>
        </g>
        <g id="rocket" transform="translate(313.958229, 640.748538)">
            <g id="rocket-wing" transform="translate(0.041771, 71.251462)" fill="#DC641A">
                <path d="M10.3049594,0 C10.3049594,0 4.84718931,0 0.813185313,16.0496894 C-1.79705257,27.6149068 2.71154014,38 2.71154014,38 C2.71154014,38 4.13530626,25.2546584 14.8135521,17.7018634 L10.3049594,0 Z" id="rocket-wing-left"></path>
                <path d="M35.6950241,0 C35.6950241,0 41.1528029,0 45.1868134,16.0496894 C47.7970554,27.6149068 43.2884555,38 43.2884555,38 C43.2884555,38 41.8646871,25.2546584 31.1864241,17.7018634 L35.6950241,0 Z" id="rocket-wing-right"></path>
            </g>
            <g id="rocket-body" transform="translate(4.041771, 18.251462)">
                <path d="M39,26.8571429 C39,34.1062155 38.2408929,40.9524311 36.8944643,47 L2.10553571,47 C0.759107143,40.9524311 0,34.1062155 0,26.8571429 C0,16.7692231 1.46946429,7.46581454 3.94875,0 L35.0535714,0 C37.5328571,7.46581454 39,16.7692231 39,26.8571429" id="rocket-body-full" fill="#EFEFEF"></path>
                <path d="M19.5,0 L19.5,47 L2.11814371,47 C0.763652695,40.9524311 0,34.1062155 0,26.8571429 C0,16.7692231 1.47826347,7.46581454 3.97239521,0 L19.5,0 Z" id="rocket-body-left" fill="#F9F9F9"></path>
            </g>
            <g id="rocket-tail" transform="translate(6.041771, 67.251462)" fill="#CEE5F1">
                <path d="M0,0 L17.5,0 L17.5,34 C10.0469469,33.8806934 3.87913007,22.6229209 2.70075282,7.88616745 C1.67607696,5.49049056 0.768506901,2.84665591 0,0" id="rocket-tail-left"></path>
                <path d="M35,0 C34.2368182,2.84645614 33.3352946,5.49010526 32.3179612,7.88561404 C31.1402385,22.7024561 24.9548321,34 17.5001211,34 C17.4589336,34 17.4199265,34 17.3789812,33.997614 C9.97732952,33.8783158 3.85225078,22.6213333 2.68203875,7.88561404 C1.66446307,5.49010526 0.763181758,2.84645614 0,0 L35,0 Z" id="rocket-tail-full"></path>
            </g>
            <g id="rocket-window" transform="translate(11.041771, 27.251462)">
                <path d="M22,11 C22,17.0751087 17.0751087,22 11,22 C4.9248913,22 0,17.0751087 0,11 C0,4.9248913 4.9248913,0 11,0 C17.0751087,0 22,4.9248913 22,11" id="rocket-window-frame" fill="#C83C02"></path>
                <path d="M17.2517986,11.0791367 C17.2517986,14.4881079 14.4881079,17.2517986 11.0791367,17.2517986 C7.67016547,17.2517986 4.90647482,14.4881079 4.90647482,11.0791367 C4.90647482,7.67016547 7.67016547,4.90647482 11.0791367,4.90647482 C14.4881079,4.90647482 17.2517986,7.67016547 17.2517986,11.0791367" id="rocket-window-glass" fill="#D4EDFB"></path>
            </g>
            <g id="rocket-top" transform="translate(8.041771, 0.251462)">
                <path d="M15,0 L15,15 L0,15 C3.62731152,5.87589029 8.99928876,0.0750113654 15,0" id="rocket-top-left" fill="#DE6319"></path>
                <path d="M30,15 L15,15 L15,0.00227272727 C15.0396702,0 15.0770068,0 15.116677,0 C21.0693062,0 26.4040137,5.81818182 30,15" id="rocket-top-right" fill="#C63E06"></path>
            </g>
            <g id="rocket-upper-shadow" transform="translate(7.041771, 15.251462)">
                <path d="M15.761194,0 L15.761194,3 L0,3 C0.244157465,1.97666667 0.497796773,0.973333333 0.763288386,0 L15.761194,0 Z" id="rocket-upper-shadow-l" fill="#D5EAF6"></path>
                <path d="M32,3 L15.761194,3 L15.761194,0 L31.2253488,0 C31.4926275,0.973333333 31.7522078,1.97666667 32,3" id="rocket-upper-shadow-r" fill="#C0DDE3"></path>
            </g>
            <g id="rocket-lower-shadow" transform="translate(6.041771, 64.251462)" fill="#D1E2ED">
                <path d="M35,0 C34.8051173,1.02 34.5963145,2.02090909 34.3738234,3 L17.5,3 L17.5,0 L35,0 Z" id="rocket-lower-shadow-r"></path>
                <path d="M17.5,0 L17.5,3 L0.634824667,3 C0.40934435,2.02090909 0.197501008,1.02 0,0 L17.5,0 Z" id="rocket-lower-shadow-l"></path>
            </g>
            <g id="rocket-middle-part" transform="translate(18.041771, 67.251462)">
                <path d="M9,26.7272727 L9,42 L4.76470588,42 L4.76470588,0 C8.47058824,3.57954545 9,8.59090909 9,26.7272727" id="rmp-right" fill="#C43E09"></path>
                <path d="M4.76470588,0 L4.76470588,42 L0,42 L0,26.7272727 C0,0 4.76470588,0 4.76470588,0" id="rmp-left" fill="#DC641A"></path>
            </g>
            <g id="rocket-flame" transform="translate(20.041771, 109.251462)">
                <path d="M2.95910304,23 C2.95910304,23 -1.48913812,14.0420562 0.522060806,0 L5.19163823,0 C5.19163823,0 8.07177905,12.982274 2.95910304,23" id="flame-out" fill="#FEC80B"></path>
                <path d="M4.89291219,0.153333333 C4.89291219,0.153333333 5.55678989,12.585124 3.12257164,16.2533333 C3.12257164,16.2533333 0.467060811,10.5217563 1.13093852,0.153333333" id="flame-in" fill="#F8D570"></path>
            </g>
        </g>
        <g id="window-outside" transform="translate(407.478429, 240.387636)" fill="#FBF4EC">
            <path d="M107.521571,32.1123642 C98.9476061,33.1756779 98.085328,34.0383997 97.0215706,42.6123642 C95.9578132,34.0383997 95.0955351,33.1756779 86.5215706,32.1123642 C95.0955351,31.0490506 95.9578132,30.1863287 97.0215706,21.6123642 C98.085328,30.1863287 98.9476061,31.0490506 107.521571,32.1123642" id="window-star-1"></path>
            <path d="M270.521571,144.112364 C261.947606,145.175678 261.085328,146.0384 260.021571,154.612364 C258.957813,146.0384 258.095535,145.175678 249.521571,144.112364 C258.095535,143.049051 258.957813,142.186329 260.021571,133.612364 C261.085328,142.186329 261.947606,143.049051 270.521571,144.112364" id="window-star-2"></path>
            <path d="M61.5215706,127.612364 C55.8055943,128.32124 55.2307422,128.896388 54.5215706,134.612364 C53.812399,128.896388 53.2375469,128.32124 47.5215706,127.612364 C53.2375469,126.903489 53.812399,126.328341 54.5215706,120.612364 C55.2307422,126.328341 55.8055943,126.903489 61.5215706,127.612364" id="window-star-3"></path>
            <path d="M273.521571,273.612364 C267.805594,274.32124 267.230742,274.896388 266.521571,280.612364 C265.812399,274.896388 265.237547,274.32124 259.521571,273.612364 C265.237547,272.903489 265.812399,272.328341 266.521571,266.612364 C267.230742,272.328341 267.805594,272.903489 273.521571,273.612364" id="window-star-4"></path>
            <path d="M19.5215706,222.612364 C13.8055943,223.32124 13.2307422,223.896388 12.5215706,229.612364 C11.812399,223.896388 11.2375469,223.32124 5.52157059,222.612364 C11.2375469,221.903489 11.812399,221.328341 12.5215706,215.612364 C13.2307422,221.328341 13.8055943,221.903489 19.5215706,222.612364" id="window-star-5"></path>
            <path d="M158.521571,286.612364 C147.906186,287.928848 146.838604,288.99698 145.521571,299.612364 C144.204538,288.99698 143.136955,287.928848 132.521571,286.612364 C143.136955,285.295881 144.204538,284.227749 145.521571,273.612364 C146.838604,284.227749 147.906186,285.295881 158.521571,286.612364" id="window-star-6"></path>
            <path d="M273.521571,328.612364 C262.906186,329.928848 261.838604,330.99698 260.521571,341.612364 C259.204538,330.99698 258.136955,329.928848 247.521571,328.612364 C258.136955,327.295881 259.204538,326.227749 260.521571,315.612364 C261.838604,326.227749 262.906186,327.295881 273.521571,328.612364" id="window-star-7"></path>
            <path d="M19.5215706,71.6123642 C11.3558901,72.6250439 10.5346729,73.4466838 9.52157059,81.6123642 C8.50846831,73.4466838 7.68725107,72.6250439 -0.478429407,71.6123642 C7.68725107,70.5996846 8.50846831,69.7780447 9.52157059,61.6123642 C10.5346729,69.7780447 11.3558901,70.5996846 19.5215706,71.6123642" id="window-star-8"></path>
            <path d="M211.521571,202.612364 C205.805594,203.32124 205.230742,203.896388 204.521571,209.612364 C203.812399,203.896388 203.237547,203.32124 197.521571,202.612364 C203.237547,201.903489 203.812399,201.328341 204.521571,195.612364 C205.230742,201.328341 205.805594,201.903489 211.521571,202.612364" id="window-star-9"></path>
            <path d="M109.521571,184.612364 C101.35589,185.625044 100.534673,186.446684 99.5215706,194.612364 C98.5084683,186.446684 97.6872511,185.625044 89.5215706,184.612364 C97.6872511,183.599685 98.5084683,182.778045 99.5215706,174.612364 C100.534673,182.778045 101.35589,183.599685 109.521571,184.612364" id="window-star-10"></path>
            <path d="M149.521571,117.612364 C141.35589,118.625044 140.534673,119.446684 139.521571,127.612364 C138.508468,119.446684 137.687251,118.625044 129.521571,117.612364 C137.687251,116.599685 138.508468,115.778045 139.521571,107.612364 C140.534673,115.778045 141.35589,116.599685 149.521571,117.612364" id="window-star-11"></path>
        </g>
        <g id="pink-vase" transform="translate(743.350877, 301.981621)">
            <g id="pink-vase-leaf1" transform="translate(-0.350877, 234.018379)">
                <path d="M2.37229368,0 C2.37229368,0 -5.42106174,44.4002974 7.24314082,79.1483561 C19.9073434,113.896415 36.9962235,140.528872 57.1897815,155.686747 C59.58429,120.367276 49.1324262,90.7310424 44.2615791,76.2526846 C39.3907319,61.7743267 26.7265294,38.6089542 22.8298517,29.9219395 C18.933174,21.2349248 12.113988,6.75656699 2.37229368,0" id="leaf1-leaf" fill="#265661"></path>
                <path d="M69.2597389,205.039825 C69.2597389,205.039825 68.2936265,194.435725 60.5647277,171.299507 C52.8358288,148.163289 23.5635903,73.0698743 18.0557837,56.5824271 C13.2252219,42.122291 3.5640983,4.52593709 2.59798594,2.59791894 C1.63187358,0.669900791 33.5135815,87.4307175 35.4458062,95.1427901 C37.378031,102.854863 63.4630647,157.80338 70.2258513,193.471716 C76.9886378,229.140052 69.2597389,205.039825 69.2597389,205.039825" id="leaf1-branch" fill="#8CA697"></path>
            </g>
            <g id="pink-vase-leaf2" transform="translate(34.649123, 49.018379)">
                <path d="M16.5649254,0 C16.5649254,0 46.267852,52.250064 41.4770574,152.879817 C37.6444217,215.773412 34.7699449,223.514163 33.811786,233.1901 C32.8536271,242.866038 31.5304096,264.483051 31.5304096,264.483051 C31.5304096,264.483051 11.7741308,225.44935 5.06701835,175.134474 C-1.64009411,124.819597 -0.681935188,78.375096 2.19254158,59.0232205 C5.06701835,39.6713449 10.8159719,13.5463129 16.5649254,0" id="leaf2-leaf" fill="#265661"></path>
                <path d="M16.2857143,0 C16.2857143,0 17.2463579,75.3624051 19.1676453,122.705454 C21.0889326,170.048504 23.0102199,211.594445 24.9315073,223.188661 C26.8527946,234.782878 27.8134382,276.328819 28.7740819,285.990666 C29.7347256,295.652512 34.5379439,388.406242 35.4985876,400.966643 C36.4592312,413.527043 37.4198749,383.575318 36.4592312,374.879656 C35.4985876,366.183994 32.6166566,266.666972 30.6953692,252.174202 C28.7740819,237.681432 19.6479671,86.473529 19.6479671,49.7585111 C18.6873234,15.9420472 16.2857143,0 16.2857143,0" id="leaf2-branch" fill="#8CA697"></path>
            </g>
            <g id="pink-vase-leaf3" transform="translate(75.649123, 0.018379)">
                <path d="M76.3530569,0 C76.3530569,0 35.5542583,19.2608782 15.154859,108.823962 C2.52665947,169.495728 11.9055261,229.046512 11.9055261,229.046512 C11.9055261,229.046512 51.0966577,174.310948 63.7248573,123.269621 C76.3530569,72.2282933 78.2958568,7.70435129 76.3530569,0" id="leaf3-leaf" fill="#2F5F61"></path>
                <path d="M0.241975309,440.517672 C0.241975309,440.517672 -0.725925926,387.461605 1.20987654,334.405538 C3.14567901,281.34947 7.98518519,248.551174 16.6962963,199.35373 C25.4074074,150.156286 38.9580247,96.135563 49.6049383,63.3372669 C60.2518519,30.5389708 66.0592593,11.2458554 71.8666667,2.56395349 C71.8666667,2.56395349 35.5703704,107.229104 24.9234568,174.755008 C14.2765432,242.280912 4.59753086,280.867143 5.5654321,359.968915 C6.53333333,439.070688 6.53333333,441 6.53333333,441 L0.241975309,440.517672 Z" id="leaf3-branch" fill="#8CA697"></path>
            </g>
            <g id="pink-vase-leaf4" transform="translate(80.649123, 124.018379)">
                <path d="M113,0 C113,0 77.201663,9.6322114 33.6631451,93.4324505 C9.47507958,148.336055 16.2961141,182.944591 16.2961141,182.944591 C16.2961141,182.944591 48.6597457,145.928003 73.8153339,96.8037245 C98.970922,47.6794464 112.516239,9.15060083 113,0" id="leaf4-leaf" fill="#2F5F61"></path>
                <path d="M113,0 C113,0 72.4367642,34.7142857 35.7366937,121.5 C-0.963376851,208.285714 0.00241447832,276.75 0.00241447832,276.75 L0.00241447832,324 L3.38268413,322.553571 C3.38268413,322.553571 1.45110147,272.410714 5.31426679,245.410714 C9.17743211,218.410714 19.8011367,171.160714 23.664302,160.553571 C27.5274674,149.946429 45.8775026,98.8392857 61.3301639,73.7678571 C76.7828252,48.6964286 103.824982,7.23214286 113,0" id="leaf4-branch" fill="#8CA697"></path>
            </g>
            <g id="pink-vase-leaf5" transform="translate(88.649123, 236.018379)">
                <path d="M161.999999,0 C161.999999,0 135.957395,11.6120065 113.772954,18.385677 C91.5885132,25.1593474 60.7232045,48.3833604 44.3260092,77.4133767 C27.9288139,106.443393 24.3378281,125.955435 26.1338033,128.779087 C27.9288139,131.60274 42.3969274,113.217063 58.7941227,103.540391 C75.191318,93.8637192 104.609815,68.2205382 120.04247,52.7378629 C135.475124,37.2551875 161.517728,8.22517127 161.999999,0" id="leaf5-leaf" fill="#2D5B60"></path>
                <path d="M0.00400841272,204.797853 C0.00400841272,204.797853 0.97404429,169.054831 27.165013,124.617561 C45.5956947,99.5008434 79.5469504,62.7917944 102.827811,44.4372699 C126.108673,26.0827454 160.059928,0.966027606 162,0 C162,0 85.8521836,58.4446702 56.7511073,93.221664 C27.6500309,127.998658 18.919708,137.658934 9.21934925,176.300038 C-0.481009526,214.941142 0.00400841272,204.797853 0.00400841272,204.797853" id="leaf5-branch" fill="#8CA697"></path>
            </g>
            <g id="pink-vase-leaf6" transform="translate(86.649123, 359.018379)">
                <path d="M129,0.890150871 C129,0.890150871 105.907129,-1.03950489 59.7213855,25.9756757 C13.5356425,52.9908563 18.99422,62.78 18.99422,62.78 C18.99422,62.78 24.1198753,61.6743073 31.8174991,61.6743073 C39.5151229,61.6743073 72.2300242,52.0260285 84.738663,45.2722333 C97.2473017,38.5184382 108.793737,25.0108478 112.642549,21.1515363 C116.491361,17.2922248 128.037797,4.74946239 129,0.890150871" id="leaf6-leaf" fill="#2D5B60"></path>
                <path d="M6.61260284,80.9018283 C6.61260284,80.9018283 18.1767664,59.4579702 46.1234948,40.9382746 C70.2155022,25.3427414 126.108959,2.92416247 129,0 C100.089591,9.74720823 65.3971007,26.3174622 49.978216,36.0646705 C34.5593313,45.8118787 12.9488008,64.350094 3.51629806,78.9621339 C-5.91524096,93.573199 6.61260284,80.9018283 6.61260284,80.9018283" id="leaf6-branch" fill="#8CA697"></path>
            </g>
            <g id="vase" transform="translate(28.649123, 436.018379)">
                <path d="M127,67.1903323 L127,68.1570997 L127,131.963746 C127,131.963746 126.037879,160 78.8939394,160 L36.5606061,160 C36.5606061,160 0,157.099698 0,113.595166 C0,95.5166163 0.740833333,80.3577039 2.28022727,68.1570997 C4.42575758,50.9969789 8.12992424,39.6858006 13.469697,34.3202417 C22.6098485,25.1359517 30.7878788,19.8187311 30.7878788,19.8187311 L30.3068182,0 L100.541667,0 L100.541667,21.2688822 C100.541667,21.2688822 127,26.5861027 127,67.1903323" id="pink-vase-full" fill="#FFFFFF"></path>
                <path d="M127,68.4491979 L127,132.052913 C127,132.052913 126.037879,160 78.8939394,160 L36.5606061,160 C36.5606061,160 0,157.108922 0,113.742753 C0,95.7217 0.740833333,80.6109992 2.28022727,68.4491979 L127,68.4491979 Z" id="pink-vase-bottom" fill="#E6AC95"></path>
            </g>
        </g>
        <g id="green-vase" transform="translate(881.819549, 783.901181)">
            <path d="M68.1804511,123.638703 C68.1804511,133.234033 66.9874687,136.832282 53.8646617,136.832282 L10.9172932,136.832282 C10.9172932,136.832282 0.180451128,139.231115 0.180451128,129.635784 L0.180451128,44.4772241 C0.180451128,32.4830607 10.320802,9.09444202 27.0225564,9.09444202 L26.4260652,0.0988194486 L41.9348371,0.0988194486 L41.9348371,8.49473385 C41.9348371,8.49473385 66.9874687,15.6912319 66.9874687,40.8789751 C66.9874687,47.475765 67.0709774,55.6449897 67.1902757,64.2675938 C67.5362406,88.5677689 68.1804511,116.562146 68.1804511,123.638703" id="green-vase-full" fill="#C7DBD2"></path>
            <path d="M68.1804511,123.607511 C68.1804511,133.225077 66.9874687,136.831665 53.8646617,136.831665 L10.9172932,136.831665 C10.9172932,136.831665 0.180451128,139.236056 0.180451128,129.61849 L0.180451128,64.0988194 L67.1902757,64.0988194 C67.5362406,88.4553062 68.1804511,116.514556 68.1804511,123.607511" id="green-vase-bottom" fill="#305D5C"></path>
        </g>
        <g id="fan" transform="translate(572.314954, 753.670844)">
            <g id="fan-wing" transform="translate(34.685046, 9.329156)" fill="#F9FBFF">
                <path d="M41.3385568,0.107649771 C41.3385568,0.107649771 24.3981309,3.99649775 30.3771048,14.6908297 C36.3560786,25.3851616 42.3350524,31.2184336 45.3245393,44.8294015 C46.3210349,50.6626735 49.3105218,46.7738255 51.3035131,43.8571895 C53.2965044,40.9405536 67.2474433,23.4407377 62.2649651,10.8019817 C57.2824869,-1.83677422 46.3210349,0.107649771 41.3385568,0.107649771" id="fan-wing-3"></path>
                <path d="M5.13299539,87.7697782 C5.13299539,87.7697782 16.9816749,100.339129 23.4457615,89.7713113 C29.9088577,79.2044811 32.0836905,71.1084478 42.6052863,61.6253698 C47.2570121,57.8060574 42.3398695,57.2152791 38.7765505,56.9860808 C35.2132314,56.7568826 12.8429561,53.6696215 4.16838373,64.3688334 C-4.50519831,75.0690332 2.65709278,83.4920693 5.13299539,87.7697782" id="fan-wing-2"></path>
                <path d="M94.0086827,76.9793099 C94.0086827,76.9793099 98.9989209,60.5537178 86.5867438,60.2551064 C74.1735758,59.956495 66.0520523,62.1135695 52.5518527,57.79058 C46.9076118,55.6934242 48.8537651,60.2109041 50.4372442,63.3846326 C52.0207233,66.5603256 60.5306847,87.3098895 74.1646576,89.4414249 C87.7976396,91.571978 91.5314,81.2325579 94.0086827,76.9793099" id="fan-wing-1"></path>
            </g>
            <g id="fan-handle" transform="translate(-0.314954, 58.329156)" fill="#E9CDB4">
                <path d="M20.516129,0 L12.7004608,0 L0,79.7746359 C0,79.7746359 0,87.6536123 3.9078341,85.6838682 C7.8156682,80.759508 17.5852535,5.90923229 17.5852535,5.90923229 L20.516129,5.90923229 L20.516129,0 Z" id="fan-handle-left"></path>
                <path d="M138.483871,0 L146.299539,0 L159,79.7746359 C159,79.7746359 159,87.6536123 155.092166,85.6838682 C151.184332,80.759508 141.414747,5.90923229 141.414747,5.90923229 L138.483871,5.90923229 L138.483871,0 Z" id="fan-handle-right"></path>
                <polygon id="fan-handle-horizontal" points="5.98387097 73.1 153.870968 73.1 153.870968 67.08 5.98387097 67.08"></polygon>
            </g>
            <g id="fan-circle" transform="translate(19.685046, 0.329156)" fill="#D5C19C">
                <path d="M60.5,1.9516129 C28.2164194,1.9516129 1.9516129,28.2164194 1.9516129,60.5 C1.9516129,92.7835806 28.2164194,119.048387 60.5,119.048387 C92.7835806,119.048387 119.048387,92.7835806 119.048387,60.5 C119.048387,28.2164194 92.7835806,1.9516129 60.5,1.9516129 M60.5,121 C27.1401048,121 0,93.8598952 0,60.5 C0,27.1401048 27.1401048,0 60.5,0 C93.8598952,0 121,27.1401048 121,60.5 C121,93.8598952 93.8598952,121 60.5,121" id="fan-circle-4"></path>
                <path d="M60.9260563,14.7269171 C35.4523372,14.7269171 14.7269171,35.4523372 14.7269171,60.9260563 C14.7269171,86.3997754 35.4523372,107.125196 60.9260563,107.125196 C86.3997754,107.125196 107.125196,86.3997754 107.125196,60.9260563 C107.125196,35.4523372 86.3997754,14.7269171 60.9260563,14.7269171 M60.9260563,109.070423 C34.3795446,109.070423 12.7816901,87.4725681 12.7816901,60.9260563 C12.7816901,34.3795446 34.3795446,12.7816901 60.9260563,12.7816901 C87.4725681,12.7816901 109.070423,34.3795446 109.070423,60.9260563 C109.070423,87.4725681 87.4725681,109.070423 60.9260563,109.070423" id="fan-circle-3"></path>
                <path d="M60.9260563,28.3667075 C43.4431741,28.3667075 29.2188202,42.5900858 29.2188202,60.0739437 C29.2188202,77.5578015 43.4431741,91.7811798 60.9260563,91.7811798 C78.4089386,91.7811798 92.6332925,77.5578015 92.6332925,60.0739437 C92.6332925,42.5900858 78.4089386,28.3667075 60.9260563,28.3667075 M60.9260563,93.7323944 C42.3670793,93.7323944 27.2676056,78.6329207 27.2676056,60.0739437 C27.2676056,41.5149666 42.3670793,26.415493 60.9260563,26.415493 C79.4850334,26.415493 94.584507,41.5149666 94.584507,60.0739437 C94.584507,78.6329207 79.4850334,93.7323944 60.9260563,93.7323944" id="fan-circle-2"></path>
                <path d="M60.5,39.4510039 C48.8936815,39.4510039 39.4510039,48.8936815 39.4510039,60.5 C39.4510039,72.1063185 48.8936815,81.5489961 60.5,81.5489961 C72.1063185,81.5489961 81.5489961,72.1063185 81.5489961,60.5 C81.5489961,48.8936815 72.1063185,39.4510039 60.5,39.4510039 M60.5,83.5070423 C47.813819,83.5070423 37.4929577,73.186181 37.4929577,60.5 C37.4929577,47.813819 47.813819,37.4929577 60.5,37.4929577 C73.186181,37.4929577 83.5070423,47.813819 83.5070423,60.5 C83.5070423,73.186181 73.186181,83.5070423 60.5,83.5070423" id="fan-circle-1"></path>
            </g>
            <g id="fan-line" transform="translate(21.685046, 1.329156)" fill="#D5C19C">
                <polygon id="fan-line-4" points="64.8794662 119 52.2230216 0.212541977 54.1214883 0 66.7769784 118.787458"></polygon>
                <polygon id="fan-line-3" points="104.934846 97.5971223 11.9856115 22.9279161 13.2090392 21.4028777 106.158273 96.0711063"></polygon>
                <polygon id="fan-line-2" points="0.213517918 66.7769784 0 64.8794662 118.787462 52.2230216 119 54.1205338"></polygon>
                <polygon id="fan-line-1" points="22.9279357 107.014388 21.4028777 105.790948 96.0720643 12.8417266 97.5971223 14.065167"></polygon>
            </g>
            <path d="M93.6850459,60.3291562 C93.6850459,67.5091562 87.8650459,73.3291562 80.6850459,73.3291562 C73.5050459,73.3291562 67.6850459,67.5091562 67.6850459,60.3291562 C67.6850459,53.1491562 73.5050459,47.3291562 80.6850459,47.3291562 C87.8650459,47.3291562 93.6850459,53.1491562 93.6850459,60.3291562" id="fan-middle" fill="#EB9749"></path>
        </g>
        <g id="top-layer" transform="translate(0.000000, 0.000000)">
            <path d="M1024,1.98951966e-13 L1024,239.999169 L664.971896,239.998552 C631.589146,206.925379 586.334487,193.878332 549.875519,193.878332 C512.050445,193.878332 465.49883,207.041286 432.45484,239.99942 L0,239.999169 L0,1.98951966e-13 L1024,1.98951966e-13 Z" id="upper-wall-over" fill="#FBECDC"></path>
            <path d="M549.477659,180 C592.238705,180 647.486555,196.794348 684.000114,240.99792 L664.966177,240.998606 C631.562105,207.729696 586.278514,194.605434 549.796242,194.605434 C511.947012,194.605434 465.365668,207.846273 432.300578,240.999423 L414.000005,240.995109 C451.554913,198.818109 507.258034,180 549.477659,180 Z" id="window-frame-over" fill="#E9CDB4"></path>
        </g>
        <g id="hanging-plant" transform="translate(22.242272, 0.000000)">
            <path d="M150.757728,333.432432 L150.757728,338 L132.757728,338 L132.757728,333.432432 C132.757728,328.910541 135.997728,325.151432 140.257728,324.434324 L140.257728,0 L143.257728,0 L143.257728,324.434324 C147.517728,325.151432 150.757728,328.910541 150.757728,333.432432" id="haging-plant-rope" fill="#1A1915"></path>
            <g id="hanging-leaf-4" transform="translate(116.757728, 437.000000)">
                <path d="M0.0591226257,2.55199458 C0.0591226257,2.55199458 7.44591534,-7.26887195 11.9701339,11.6207991 C18.8056047,20.1927869 17.2422461,35.8523895 17.2422461,35.8523895 C23.8181809,47.0345642 28.1135778,55.3604226 20.954071,75.7451018 C28.5374353,89.6605283 25.4460395,107.805734 21.3472142,123.217688 C21.8355718,131.171313 27.9216133,134.399863 26.880398,144.839091 C25.8391828,155.279839 18.711926,162.490519 19.2002836,170.444144 C19.6886412,178.396251 24.9945391,189.45688 19.8852128,202.134063 C14.7758866,214.811246 7.1295579,227.242299 1.33530241,208.229564 C-1.43052164,197.418102 5.46637775,179.645129 7.2570223,174.54782 C9.30720282,166.843363 4.49119825,163.737878 2.47326777,158.269855 C0.455337287,152.803352 1.49655256,142.362604 6.34480715,132.295608 C10.1840965,119.493841 6.63659315,116.511422 4.3591267,113.653586 C2.08012454,110.79575 0.843873369,97.4986858 5.432592,90.0403576 C10.0197749,82.5835486 9.01080968,79.8487776 6.73334324,76.9909419 C4.45434108,74.1331062 2.20912466,58.1027902 6.04841402,45.3010233 C7.61023693,29.6414207 7.12187932,21.687795 4.84287716,18.8299593 C2.56541072,15.9721236 -0.461485011,7.77236856 0.0591226257,2.55199458" id="hanging-leaf-leaf-4" fill="#2C5C60"></path>
                <path d="M5.77083827,212.015675 C5.67020923,212.015675 5.56805552,211.995882 5.47047585,211.954772 C5.08320654,211.788808 4.90481871,211.341164 5.07100908,210.954424 C5.25397096,210.508302 9.67097565,198.918279 14.1565911,115.291049 C16.5091759,71.4371522 13.5116504,43.6664685 10.581211,28.091803 C7.40529772,11.2183605 3.62561024,4.63007454 3.58901786,4.56612538 C3.37556234,4.20374681 3.49753692,3.7378315 3.86041132,3.52466764 C4.22328571,3.31150378 4.6898385,3.4333117 4.90329403,3.79416767 C5.52993846,4.85998699 20.2141539,30.8492298 15.6812734,115.370225 C11.1514422,199.801386 6.65972806,211.114297 6.47066746,211.554328 C6.34716819,211.843622 6.06662664,212.015675 5.77083827,212.015675" id="hanging-leaf-branch-4" fill="#85ABA4"></path>
            </g>
            <g id="hanging-plant-hoop" transform="translate(83.757728, 338.000000)" fill="#DA9E58">
                <path d="M57.5,119.664634 C28.6743421,119.664634 5.29605263,96.1128049 5.29605263,67.0731707 C5.29605263,38.0335366 28.6743421,14.4817073 57.5,14.4817073 C86.3256579,14.4817073 109.703947,38.0335366 109.703947,67.0731707 C109.703947,96.1128049 86.3256579,119.664634 57.5,119.664634 M66.5789474,9.86280488 L66.5789474,0 L48.4210526,0 L48.4210526,9.86280488 C20.9723684,14.2530488 0,38.1859756 0,67.0731707 C0,99.070122 25.7388158,125 57.5,125 C89.2611842,125 115,99.070122 115,67.0731707 C115,38.1859756 94.0276316,14.2530488 66.5789474,9.86280488" id="hoop"></path>
            </g>
            <path d="M190.757728,424 C183.126705,443.89 164.056764,458 141.757728,458 C119.458691,458 100.38875,443.89 92.7577277,424 L190.757728,424 Z" id="hanging-plant-water" fill="#FDFFFE"></path>
            <g id="hanging-leaf-1" transform="translate(-0.242272, 376.000000)">
                <path d="M124.264254,49 C124.264254,49 130.366485,41.34375 119.687582,33.6875 C115.110909,24.5 105.957563,24.5 105.957563,24.5 C99.8553323,15.3125 95.2786595,9.1875 83.0741984,15.3125 C75.4464103,4.59375 64.7675068,6.125 55.6141611,9.1875 C51.0374882,7.65625 49.5119305,0 43.4097,0 C37.3074695,0 32.7307966,7.65625 28.1541237,6.125 C23.5774508,4.59375 17.4752203,-3.0625 9.84743216,1.53125 C2.21964401,6.125 -5.40814414,13.78125 5.27075927,22.96875 C11.3729898,27.5625 22.0518932,21.4375 25.1030085,19.90625 C29.6796814,18.375 31.205239,24.5 34.2563542,27.5625 C37.3074695,30.625 43.4097,30.625 49.5119305,26.03125 C57.1397187,22.96875 58.6652763,27.5625 60.190834,30.625 C61.7163916,33.6875 69.3441797,36.75 73.9208526,32.15625 C78.4975255,27.5625 80.0230832,29.09375 81.5486408,32.15625 C83.0741984,35.21875 92.2275442,39.8125 99.8553323,36.75 C109.008678,36.75 113.585351,38.28125 115.110909,41.34375 C116.636466,44.40625 121.213139,49 124.264254,49" id="hanging-leaf-leaf-1" fill="#2C5C60"></path>
                <path d="M117.52496,36.9649123 C117.345463,36.9649123 117.164445,36.8993325 117.019935,36.7681729 C90.1745004,12.2741187 1.65971283,13.598206 0.774397631,13.6185045 C0.349993951,13.5482405 0.00773291893,13.2827984 1.21807326e-14,12.8518455 C-0.0074786825,12.4193311 0.327176549,12.0648879 0.747016748,12.0570808 C0.969106129,12.0477122 23.4351203,11.6792162 48.9525817,14.3648651 C83.312547,17.9842453 106.552832,25.1293203 118.029985,35.6002279 C118.344865,35.8875299 118.372246,36.3809398 118.093874,36.7025931 C117.943279,36.8759111 117.73488,36.9649123 117.52496,36.9649123" id="hanging-leaf-branch-1" fill="#85ABA4"></path>
            </g>
            <g id="hanging-leaf-2" transform="translate(2.757728, 418.000000)">
                <path d="M121,6.19849459 C121,6.19849459 119.202842,-4.29964262 105.371147,2.02877333 C94.681421,1.36046094 88.1178223,10.541764 88.1178223,10.541764 C76.3339085,11.4049374 68.1137462,12.4903741 64.300899,28.2345352 C50.1895438,29.7507975 43.7665391,41.3358938 39.6725039,52.2679013 C35.1551587,55.980917 27.8885902,53.1310747 23.5133671,59.2509285 C19.1366158,65.3692599 22.0279613,74.3404784 17.5121443,78.0534941 C12.9963272,81.7680322 2.44719525,83.5065578 0.682129711,93.7839541 C-1.08446403,104.062873 -0.379966004,116.094018 14.684983,110.639432 C22.7645514,107.14868 25.4832108,92.9344818 26.4368047,88.9992027 C28.4830581,83.5324378 34.5163731,85.506928 39.1743123,84.1992279 C43.8307233,82.8915278 48.2059463,76.771674 48.8783523,68.0242412 C51.8781996,58.6237196 56.6767327,59.7198128 60.2389559,59.9435985 C63.8027073,60.1643395 71.7416817,54.266749 71.3198998,47.0492797 C70.8965898,39.8318104 73.2255594,39.1771991 76.7893107,39.4009848 C80.3515339,39.6217258 90.619478,33.0710465 93.6193253,23.6705249 C100.182924,14.4892219 104.700269,10.7762061 108.264021,10.9984695 C111.826244,11.2207328 118.811624,9.25994383 121,6.19849459" id="hanging-leaf-leaf-2" fill="#2C5C60"></path>
                <path d="M8.48363195,104.305344 C8.37559082,104.305344 8.26602798,104.282449 8.16255197,104.233608 C7.78212546,104.055032 7.6177812,103.601724 7.7942991,103.218626 C28.9399265,57.7703281 105.305223,4.09380803 106.073685,3.55655441 C106.419112,3.3154008 106.892363,3.40239926 107.132792,3.74581421 C107.373222,4.09380803 107.288006,4.56848381 106.944101,4.80963742 C106.178683,5.34383845 30.1466394,58.7883627 9.1744865,103.865772 C9.04514149,104.143557 8.76971269,104.305344 8.48363195,104.305344" id="hanging-leaf-branch-2" fill="#85ABA4"></path>
            </g>
            <g id="hanging-leaf-3" transform="translate(56.757728, 419.000000)">
                <path d="M68,3.72209627 C68,3.72209627 61.5842398,-8.19793459 52.1320012,10.6250895 C42.2805869,18.1202028 40.6244645,34.8913559 40.6244645,34.8913559 C30.4957602,45.1796318 23.6533999,52.9715661 27.4608055,75.925731 C15.5525694,88.8625644 15.1244458,108.57453 16.4773774,125.640982 C14.1447892,133.877387 6.34867306,135.929258 5.24560719,147.109519 C4.14101774,158.28978 10.834068,167.416649 8.50147981,175.651531 C6.16889161,183.887936 -2.45452395,194.328428 0.6764158,208.746323 C3.80887912,223.165739 9.94887288,237.881977 20.9048766,219.206603 C26.5207617,208.472334 22.4375897,188.315898 21.4853574,182.575835 C20.8088916,174.044131 27.1012425,171.841566 30.6603059,166.549018 C34.2208929,161.254947 35.3254823,150.074686 31.915729,138.451476 C30.2885544,124.179709 35.0771402,121.829494 38.3604371,119.330108 C41.6452575,116.833767 46.0331439,103.15412 42.3491477,94.3240726 C38.6651514,85.4955477 40.4446831,82.8485123 43.72798,80.3506486 C47.0128005,77.8512628 53.1802185,61.5276245 51.553044,47.2558573 C53.2091664,30.4862263 55.540231,22.2498214 58.8250515,19.7504356 C62.1083484,17.2525719 67.4484671,9.31298802 68,3.72209627" id="hanging-leaf-leaf-3" fill="#2C5C60"></path>
                <path d="M11.0928117,214.285714 C11.0134,214.285714 10.932461,214.273518 10.8515221,214.247601 C10.4514089,214.113441 10.2345537,213.681995 10.3689429,213.282564 C14.690776,200.336133 20.8146456,160.577541 25.6037864,114.348783 C30.1470563,70.5150834 55.9558831,15.556784 56.2170257,15.0064235 C56.3972293,14.6252874 56.8523198,14.4667348 57.2325801,14.6435819 C57.6143675,14.8234781 57.7777725,15.2777924 57.5975688,15.6589284 C57.3394805,16.2062399 31.6390813,70.9343331 27.1248274,114.507335 C22.3234693,160.833665 16.172111,200.723368 11.8166806,213.76432 C11.7097801,214.08295 11.411986,214.285714 11.0928117,214.285714" id="hanging-leaf-branch-3" fill="#85ABA4"></path>
            </g>
            <g id="hanging-leaf-5" transform="translate(129.757728, 415.000000)">
                <path d="M0,5.52037409 C0,5.52037409 12.4201276,-6.22696518 20.605705,4.55158418 C28.1800317,8.1891161 30.2561502,18.6097006 30.2561502,18.6097006 C38.2466152,23.9685102 44.6472185,28.5900646 43.7554936,43.3793433 C53.2169236,50.205047 45.7508234,65.5335578 46.1364753,76.3730373 C48.4381926,81.2824868 54.1284646,81.7318469 55.7914935,88.6184808 C57.4545224,95.5035915 53.4288036,101.940865 55.7305209,106.848792 C58.0337625,111.759764 64.970925,117.374481 63.885612,126.74402 C62.8002989,136.115082 59.6053324,145.994911 50.3664525,135.472268 C45.5389434,129.348785 46.8468066,116.280784 47.0693568,112.582322 C46.877293,107.164105 42.2418477,106.460362 39.301442,103.526573 C36.3595119,100.591262 34.696483,93.7061511 36.1979344,86.0563666 C36.2284207,76.9412113 32.6478022,75.9830841 30.1220104,74.7705735 C27.5962186,73.5565396 23.407398,65.4589183 25.3249877,59.5304115 C27.2425773,53.6019047 29.5610621,47.8394326 27.0352703,46.626922 C24.5110029,45.4144114 20.6651533,36.6770231 20.6956397,27.5603445 C18.2003342,17.2311552 10.2937066,15.7901564 7.76943915,14.5761225 C5.24364738,13.3636119 0.830752273,8.96445268 0,5.52037409" id="hanging-leaf-leaf-5" fill="#2C5C60"></path>
                <path d="M53.8475489,130.609756 C53.4512475,130.609756 53.1161509,130.307292 53.0855485,129.907553 C53.0702473,129.711483 51.5324755,110.229135 48.5732211,104.3516 C45.4624847,98.1685613 42.3838809,81.3415155 37.7919872,52.4523762 C33.3056718,24.2335221 10.7792275,7.51439057 10.5527696,7.34871918 C10.2115526,7.09945213 10.1381068,6.62523676 10.3890466,6.28629437 C10.6369263,5.94735198 11.1143241,5.87439577 11.4570712,6.12366282 C11.6896497,6.29237405 34.7164435,23.3610874 39.3022168,52.2152685 C43.8711587,80.9539356 46.9191601,97.6654675 49.9426796,103.670676 C53.0335244,109.812676 54.5483444,128.978881 54.6110793,129.792039 C54.6432119,130.210017 54.3280069,130.576318 53.9072236,130.606716 C53.887332,130.609756 53.8674404,130.609756 53.8475489,130.609756" id="hanging-leaf-branch-5" fill="#85ABA4"></path>
            </g>
        </g>
        <g id="hanging-lamp" transform="translate(754.576638, 0.000000)">
            <path d="M68.9233623,291 C91.2629353,291 109.372737,308.885866 109.372737,330.9492 L109.372737,330.9492 L28.4739873,330.9492 L28.4794064,330.288567 C28.8366063,308.529937 46.8071851,291 68.9233623,291 Z" id="lamp-bulb-on" fill="#F8D570" transform="translate(68.923362, 311.000000) rotate(-180.000000) translate(-68.923362, -311.000000) "></path>
            <path d="M68.9233623,291 C91.2629353,291 109.372737,308.885866 109.372737,330.9492 L109.372737,330.9492 L28.4739873,330.9492 L28.4794064,330.288567 C28.8366063,308.529937 46.8071851,291 68.9233623,291 Z" id="lamp-bulb-off" fill="#C6C6C6" transform="translate(68.923362, 311.000000) rotate(-180.000000) translate(-68.923362, -311.000000) "></path>
            <rect id="lamp-rope" fill="#1A1915" x="66.4233623" y="0" width="4" height="211"></rect>
            <path d="M65.4233623,210 L71.4233623,210 C76.9462098,210 81.4233623,214.477153 81.4233623,220 L81.4233623,226 L81.4233623,226 L55.4233623,226 L55.4233623,220 C55.4233623,214.477153 59.9005148,210 65.4233623,210 Z" id="lamp-cap" fill="#1A1915"></path>
            <path d="M69.4233623,222 C107.558705,222 138.473508,252.914803 138.473508,291.050145 L138.473508,291.050145 L0.373216979,291.050145 L0.382467725,289.908275 C0.992235094,252.299599 31.6693735,222 69.4233623,222 Z" id="lamp-lid" fill="#DA9E58"></path>
        </g>
        <rect id="light-off-overlay" fill-opacity="0.39338396" fill="#000000" x="0" y="0" width="1024" height="1024"></rect>
    </g>
</svg>